<svg width="20" height="31" viewBox="0 0 20 31" fill="none" xmlns="http://www.w3.org/2000/svg">
<path fill-rule="evenodd" clip-rule="evenodd" d="M16 10C16 13.3137 13.3137 16 10 16C6.68629 16 4 13.3137 4 10C4 6.68629 6.68629 4 10 4C13.3137 4 16 6.68629 16 10ZM11.7946 19.8394C16.461 18.9939 20 14.9102 20 10C20 4.47715 15.5228 0 10 0C4.47715 0 0 4.47715 0 10C0 14.9102 3.53896 18.9939 8.20537 19.8394L9.00345 29.4164C9.04665 29.9347 9.47991 30.3333 10 30.3333C10.5201 30.3333 10.9534 29.9347 10.9965 29.4164L11.7946 19.8394Z" fill="#FF0000"/>
</svg>
